<svg width="217" height="63" viewBox="0 0 217 63" fill="none" xmlns="http://www.w3.org/2000/svg">
    <path d="M202.07 0.956579H204.366V47.1058H202.07V0.956579Z" fill="black"/>
    <path d="M207.817 0.956579H211.261V47.1058H207.817V0.956579Z" fill="black"/>
    <path d="M212.409 0.956579H213.557V47.1058H212.409V0.956579Z" fill="black"/>
    <path d="M214.704 0.956579H217V47.1058H214.704V0.956579Z" fill="black"/>
    <path d="M20.646 0.957723H24.0895V47.1069H20.646V0.957723Z" fill="black"/>
    <path d="M0 0.956579H2.29566V47.1058H0V0.956579Z" fill="black"/>
    <path d="M3.44348 0.956579H4.59131V47.1058H3.44348V0.956579Z" fill="black"/>
    <path d="M6.88698 0.956579H10.3305V47.1058H6.88698V0.956579Z" fill="black"/>
    <path d="M12.6342 0.956579H17.2256V47.1058H12.6342V0.956579Z" fill="black"/>
    <path d="M18.3734 0.956579H19.5212V47.1058H18.3734V0.956579Z" fill="black"/>
    <path d="M25.2603 0.956579H27.556V47.1058H25.2603V0.956579Z" fill="black"/>
    <path d="M29.8517 0.956579H32.1473V47.1058H29.8517V0.956579Z" fill="black"/>
    <path d="M33.2952 0.956579H35.5908V47.1058H33.2952V0.956579Z" fill="black"/>
    <path d="M37.8865 0.956579H39.0343V47.1058H37.8865V0.956579Z" fill="black"/>
    <path d="M40.1821 0.956579H44.7734V47.1058H40.1821V0.956579Z" fill="black"/>
    <path d="M45.9212 0.956579H47.0691V47.1058H45.9212V0.956579Z" fill="black"/>
    <path d="M50.5126 0.956579H52.8082V47.1058H50.5126V0.956579Z" fill="black"/>
    <path d="M55.112 0.956579H57.4077V47.1058H55.112V0.956579Z" fill="black"/>
    <path d="M58.5555 0.956579H60.8512V47.1058H58.5555V0.956579Z" fill="black"/>
    <path d="M63.1468 0.956579H66.5903V47.1058H63.1468V0.956579Z" fill="black"/>
    <path d="M67.7381 0.956579H70.0338V47.1058H67.7381V0.956579Z" fill="black"/>
    <path d="M71.1816 0.956579H74.6251V47.1058H71.1816V0.956579Z" fill="black"/>
    <path d="M75.7729 0.956579H76.9207V47.1058H75.7729V0.956579Z" fill="black"/>
    <path d="M78.0686 0.956579H81.5121V47.1058H78.0686V0.956579Z" fill="black"/>
    <path d="M82.6599 0.956579H84.9555V47.1058H82.6599V0.956579Z" fill="black"/>
    <path d="M88.399 0.956579H89.5468V47.1058H88.399V0.956579Z" fill="black"/>
    <path d="M94.1463 0.956579H95.2941V47.1058H94.1463V0.956579Z" fill="black"/>
    <path d="M96.442 0.956579H98.7376V47.1058H96.442V0.956579Z" fill="black"/>
    <path d="M101.033 0.956579H103.329V47.1058H101.033V0.956579Z" fill="black"/>
    <path d="M104.477 0.956579H106.772V47.1058H104.477V0.956579Z" fill="black"/>
    <path d="M107.92 0.956579H112.512V47.1058H107.92V0.956579Z" fill="black"/>
    <path d="M113.659 0.956579H114.807V47.1058H113.659V0.956579Z" fill="black"/>
    <path d="M117.103 0.956579H118.251V47.1058H117.103V0.956579Z" fill="black"/>
    <path d="M120.546 0.956579H122.842V47.1058H120.546V0.956579Z" fill="black"/>
    <path d="M126.285 0.956579H128.581V47.1058H126.285V0.956579Z" fill="black"/>
    <path d="M129.729 0.956579H132.025V47.1058H129.729V0.956579Z" fill="black"/>
    <path d="M135.468 0.956579H137.764V47.1058H135.468V0.956579Z" fill="black"/>
    <path d="M138.92 0.956579H140.068V47.1058H138.92V0.956579Z" fill="black"/>
    <path d="M142.363 0.956579H143.511V47.1058H142.363V0.956579Z" fill="black"/>
    <path d="M145.807 0.956579H148.102V47.1058H145.807V0.956579Z" fill="black"/>
    <path d="M151.546 0.956579H153.841V47.1058H151.546V0.956579Z" fill="black"/>
    <path d="M154.989 0.956579H157.285V47.1058H154.989V0.956579Z" fill="black"/>
    <path d="M159.581 0.956579H161.876V47.1058H159.581V0.956579Z" fill="black"/>
    <path d="M164.172 0.956579H166.468V47.1058H164.172V0.956579Z" fill="black"/>
    <path d="M168.763 0.956579H171.059V47.1058H168.763V0.956579Z" fill="black"/>
    <path d="M172.207 0.956579H174.502V47.1058H172.207V0.956579Z" fill="black"/>
    <path d="M176.798 0.956579H180.241V47.1058H176.798V0.956579Z" fill="black"/>
    <path d="M181.397 0.956579H183.693V47.1058H181.397V0.956579Z" fill="black"/>
    <path d="M184.841 0.956579H188.284V47.1058H184.841V0.956579Z" fill="black"/>
    <path d="M189.432 0.956579H194.024V47.1058H189.432V0.956579Z" fill="black"/>
    <path d="M195.171 0.956579H197.467V47.1058H195.171V0.956579Z" fill="black"/>
    <path d="M198.615 0.956579H200.911V47.1058H198.615V0.956579Z" fill="black"/>
    <path d="M3.79052 62.2834C1.83592 60.4729 0.858625 58.4717 0.858627 56.2797C0.858625 55.7666 0.910565 55.2547 1.01444 54.7437C1.11832 54.2328 1.2858 53.7209 1.51687 53.2078C1.74795 52.6948 2.05322 52.1818 2.43269 51.6688C2.81216 51.1557 3.27325 50.6469 3.81596 50.1424L4.45831 50.7975C2.81322 52.4213 1.99068 54.2212 1.99068 56.197C1.99068 57.1806 2.19843 58.1261 2.61395 59.0335C3.02946 59.9408 3.64424 60.7973 4.45831 61.6029L3.79052 62.2834Z" fill="black"/>
    <path d="M12.7261 55.4592C12.7261 56.0952 12.6625 56.675 12.5353 57.1986C12.4081 57.7223 12.2152 58.1717 11.9566 58.5469C11.6979 58.9222 11.3768 59.2126 10.993 59.4182C10.6093 59.6239 10.1588 59.7267 9.64158 59.7267C9.19639 59.7267 8.79148 59.643 8.42685 59.4755C8.06222 59.308 7.75058 59.0504 7.49195 58.7028C7.23331 58.3551 7.03404 57.912 6.89412 57.3735C6.7542 56.8351 6.68425 56.197 6.68425 55.4592C6.68425 54.8232 6.74891 54.2424 6.87823 53.7166C7.00754 53.1909 7.20045 52.7404 7.45697 52.3652C7.71348 51.9899 8.03465 51.6995 8.42049 51.4939C8.80631 51.2882 9.25574 51.1854 9.76878 51.1854C10.214 51.1854 10.6189 51.2691 10.9835 51.4366C11.3481 51.6041 11.6598 51.8627 11.9184 52.2125C12.177 52.5623 12.3763 53.0064 12.5162 53.5449C12.6561 54.0834 12.7261 54.7215 12.7261 55.4592ZM11.6068 55.4974C11.6068 55.3532 11.6015 55.2102 11.5909 55.0681C11.5803 54.9261 11.5686 54.7872 11.5559 54.6515L8.03889 57.2655C8.10249 57.486 8.18305 57.6895 8.28057 57.876C8.37808 58.0626 8.49575 58.2226 8.63355 58.3561C8.77134 58.4897 8.92822 58.5936 9.10418 58.6678C9.28013 58.742 9.48046 58.7791 9.70518 58.7791C9.99349 58.7791 10.2553 58.7091 10.4906 58.5692C10.7259 58.4293 10.9263 58.2216 11.0916 57.946C11.257 57.6704 11.3842 57.328 11.4732 56.9189C11.5623 56.5097 11.6068 56.0359 11.6068 55.4974ZM7.80359 55.4211C7.80358 55.5526 7.80464 55.684 7.80676 55.8154C7.80888 55.9469 7.8163 56.0741 7.82901 56.197L11.346 53.5958C11.2824 53.3796 11.2019 53.1825 11.1043 53.0044C11.0068 52.8263 10.8902 52.6726 10.7545 52.5433C10.6189 52.414 10.4641 52.3133 10.2903 52.2412C10.1164 52.1691 9.9214 52.1331 9.70517 52.1331C9.41685 52.1331 9.15504 52.2031 8.91973 52.3429C8.68441 52.4829 8.48408 52.6917 8.31872 52.9694C8.15336 53.2471 8.02617 53.5905 7.93713 53.9997C7.84809 54.4088 7.80358 54.8827 7.80359 55.4211Z" fill="black"/>
    <path d="M19.6393 59.6122H14.4178V58.5819H16.5548V52.5146L14.5641 53.5958L14.1571 52.6545L16.8028 51.2617H17.7822V58.5819H19.6393V59.6122Z" fill="black"/>
    <path d="M22.7938 50.1424C24.7484 51.9528 25.7257 53.9668 25.7257 56.1843C25.7257 56.6422 25.679 57.117 25.5858 57.6089C25.4925 58.1007 25.3335 58.6042 25.1088 59.1193C24.884 59.6345 24.582 60.157 24.2025 60.687C23.823 61.217 23.345 61.7491 22.7683 62.2834L22.126 61.6283C22.9528 60.81 23.5697 59.9556 23.9767 59.0653C24.3837 58.1749 24.5872 57.2421 24.5873 56.2669C24.5872 54.2487 23.7668 52.4341 22.126 50.8229L22.7938 50.1424Z" fill="black"/>
    <path d="M34.0126 54.9886C34.0126 55.7984 33.9151 56.4948 33.72 57.0778C33.525 57.6608 33.2367 58.1399 32.8551 58.5151C32.4735 58.8904 32.0007 59.167 31.4368 59.3451C30.8729 59.5232 30.2221 59.6122 29.4844 59.6122H28.7911V58.6455H29.5607C30.1076 58.6455 30.5804 58.5904 30.9789 58.4802C31.3775 58.3699 31.7092 58.2077 31.9742 57.9936C32.2392 57.7795 32.4417 57.5188 32.5816 57.2114C32.7215 56.904 32.8084 56.5531 32.8424 56.1588L32.8678 55.8981C32.6007 56.0549 32.2933 56.1811 31.9456 56.2765C31.598 56.3719 31.2206 56.4196 30.8136 56.4196C30.3938 56.4196 30.0249 56.3581 29.707 56.2351C29.389 56.1122 29.125 55.9405 28.9151 55.72C28.7053 55.4995 28.5473 55.2377 28.4413 54.9345C28.3353 54.6314 28.2823 54.3017 28.2823 53.9456C28.2823 53.5598 28.3523 53.1994 28.4922 52.8644C28.6321 52.5295 28.8282 52.238 29.0805 51.9899C29.3328 51.7419 29.6349 51.5458 29.9868 51.4016C30.3387 51.2575 30.7266 51.1854 31.1506 51.1854C31.5619 51.1854 31.9424 51.2532 32.2922 51.3889C32.642 51.5246 32.9441 51.744 33.1985 52.0472C33.4529 52.3503 33.6522 52.7436 33.7963 53.2269C33.9405 53.7103 34.0126 54.2975 34.0126 54.9886ZM31.0998 52.0949C30.8623 52.0949 30.6429 52.1341 30.4415 52.2125C30.2401 52.291 30.0663 52.4054 29.92 52.556C29.7737 52.7065 29.6582 52.892 29.5734 53.1124C29.4886 53.3329 29.4462 53.5852 29.4462 53.8693C29.4462 54.1279 29.4769 54.359 29.5384 54.5625C29.5999 54.766 29.6953 54.9388 29.8246 55.0808C29.9539 55.2229 30.1203 55.332 30.3239 55.4083C30.5274 55.4846 30.769 55.5228 31.0489 55.5228C31.2058 55.5228 31.3679 55.508 31.5354 55.4783C31.7029 55.4486 31.8661 55.4084 32.0251 55.3575C32.1841 55.3066 32.3357 55.2472 32.4799 55.1794C32.624 55.1116 32.7533 55.0395 32.8678 54.9632C32.8678 54.4162 32.8275 53.9594 32.747 53.5926C32.6664 53.2259 32.5498 52.9312 32.3972 52.7086C32.2445 52.486 32.059 52.3281 31.8407 52.2348C31.6223 52.1415 31.3754 52.0949 31.0998 52.0949Z" fill="black"/>
    <path d="M41.0211 56.9538C41.0211 57.3651 40.9321 57.7403 40.754 58.0795C40.5759 58.4187 40.3311 58.7102 40.0195 58.954C39.7078 59.1978 39.34 59.3875 38.916 59.5232C38.492 59.6589 38.0341 59.7267 37.5423 59.7267C37.4193 59.7267 37.2868 59.7235 37.1448 59.7172C37.0028 59.7107 36.8618 59.7024 36.7219 59.6918C36.582 59.6812 36.4452 59.6696 36.3117 59.6568C36.1781 59.6441 36.0583 59.6292 35.9523 59.6123V58.6074C36.1813 58.6626 36.4431 58.7028 36.7378 58.7282C37.0324 58.7536 37.3303 58.7664 37.6313 58.7664C37.9705 58.7664 38.2758 58.7261 38.5472 58.6456C38.8185 58.565 39.0496 58.4495 39.2404 58.299C39.4312 58.1485 39.5774 57.9662 39.6792 57.752C39.781 57.5379 39.8318 57.2973 39.8319 57.0302C39.8318 56.5129 39.6463 56.1366 39.2754 55.9013C38.9044 55.666 38.3712 55.5484 37.6759 55.5484H36.0986V51.3H40.5759V52.2667H37.1416V54.6007H37.8667C38.2652 54.6007 38.6532 54.6368 39.0305 54.7089C39.4079 54.7809 39.7439 54.9071 40.0385 55.0873C40.3332 55.2675 40.5706 55.5091 40.7509 55.8123C40.931 56.1154 41.0211 56.4959 41.0211 56.9538Z" fill="black"/>
    <path d="M48.5957 55.4592C48.5957 56.0952 48.5321 56.675 48.4049 57.1986C48.2777 57.7223 48.0848 58.1717 47.8262 58.5469C47.5675 58.9222 47.2464 59.2126 46.8627 59.4182C46.479 59.6239 46.0285 59.7267 45.5112 59.7267C45.066 59.7267 44.6611 59.643 44.2965 59.4755C43.9318 59.308 43.6202 59.0504 43.3616 58.7028C43.1029 58.3551 42.9037 57.912 42.7637 57.3735C42.6238 56.8351 42.5539 56.197 42.5539 55.4592C42.5539 54.8232 42.6185 54.2424 42.7478 53.7166C42.8771 53.1909 43.0701 52.7404 43.3266 52.3652C43.5831 51.9899 43.9043 51.6995 44.2901 51.4939C44.6759 51.2882 45.1254 51.1854 45.6384 51.1854C46.0836 51.1854 46.4885 51.2691 46.8531 51.4366C47.2178 51.6041 47.5294 51.8627 47.788 52.2125C48.0467 52.5623 48.2459 53.0064 48.3858 53.5449C48.5258 54.0834 48.5957 54.7215 48.5957 55.4592ZM47.4764 55.4974C47.4764 55.3532 47.4707 55.2102 47.4605 55.0681C47.4499 54.9261 47.4383 54.7872 47.4255 54.6515L43.9085 57.2655C43.9721 57.486 44.0527 57.6895 44.1502 57.876C44.2477 58.0626 44.3654 58.2226 44.5032 58.3561C44.641 58.4897 44.7978 58.5936 44.9738 58.6678C45.1497 58.742 45.3501 58.7791 45.5748 58.7791C45.8631 58.7791 46.1249 58.7091 46.3602 58.5692C46.5955 58.4293 46.7959 58.2216 46.9612 57.946C47.1266 57.6704 47.2538 57.328 47.3428 56.9189C47.4319 56.5097 47.4764 56.0359 47.4764 55.4974ZM43.6732 55.4211C43.6732 55.5526 43.674 55.684 43.6765 55.8154C43.6789 55.9469 43.686 56.0741 43.6987 56.197L47.2157 53.5958C47.1521 53.3796 47.0715 53.1825 46.974 53.0044C46.8765 52.8263 46.7599 52.6726 46.6242 52.5433C46.4885 52.414 46.3338 52.3133 46.1599 52.2412C45.9861 52.1691 45.7911 52.1331 45.5748 52.1331C45.2865 52.1331 45.0247 52.2031 44.7894 52.3429C44.5541 52.4829 44.3537 52.6917 44.1884 52.9694C44.023 53.2471 43.8958 53.5905 43.8068 53.9997C43.7178 54.4088 43.6732 54.8827 43.6732 55.4211Z" fill="black"/>
    <path d="M55.5089 59.6122H50.2875V58.5819H52.4244V52.5146L50.4337 53.5958L50.0267 52.6545L52.6724 51.2617H53.6518V58.5819H55.5089V59.6122Z" fill="black"/>
    <path d="M62.7528 59.6122H57.2769V58.6201L59.4266 56.4832C59.7785 56.1355 60.0647 55.8345 60.2852 55.5801C60.5056 55.3257 60.6773 55.0935 60.8003 54.8837C60.9233 54.6738 61.0059 54.4756 61.0483 54.289C61.0908 54.1025 61.1119 53.9011 61.1119 53.6848C61.1119 53.4813 61.0843 53.2873 61.0292 53.1029C60.9741 52.9185 60.8893 52.7563 60.7749 52.6164C60.6604 52.4765 60.512 52.3662 60.3297 52.2857C60.1473 52.2051 59.929 52.1648 59.6746 52.1648C59.3227 52.1648 59.0026 52.2433 58.7143 52.4001C58.4259 52.557 58.1609 52.7605 57.9193 53.0107L57.3087 52.2793C57.6225 51.9486 57.9839 51.6836 58.3931 51.4843C58.8022 51.285 59.2782 51.1854 59.8209 51.1854C60.1897 51.1854 60.5258 51.2405 60.8289 51.3508C61.1321 51.461 61.3939 51.62 61.6144 51.8277C61.8348 52.0355 62.0055 52.2899 62.1263 52.5909C62.2472 52.892 62.3076 53.2312 62.3076 53.6085C62.3076 53.9265 62.2652 54.2212 62.1804 54.4925C62.0956 54.7639 61.9673 55.0342 61.7956 55.3034C61.6239 55.5727 61.4077 55.8514 61.1469 56.1397C60.8862 56.428 60.5777 56.7439 60.2215 57.0874L58.7143 58.5565H62.7528L62.7528 59.6122Z" fill="black"/>
    <path d="M69.7677 57.0874C69.7677 57.452 69.6935 57.7944 69.5451 58.1145C69.3967 58.4346 69.1741 58.7145 68.8773 58.954C68.5805 59.1936 68.2074 59.3822 67.758 59.52C67.3086 59.6578 66.7849 59.7267 66.1871 59.7267C65.8564 59.7267 65.5596 59.7161 65.2967 59.6949C65.0339 59.6737 64.7879 59.6462 64.559 59.6123V58.6201C64.8219 58.6668 65.0996 58.7027 65.3921 58.7282C65.6847 58.7536 65.9836 58.7664 66.2889 58.7664C66.7044 58.7664 67.0595 58.7293 67.3541 58.6551C67.6488 58.5808 67.8894 58.4738 68.076 58.3339C68.2625 58.194 68.3982 58.0244 68.483 57.8251C68.5678 57.6259 68.6102 57.4011 68.6102 57.151C68.6102 56.922 68.5593 56.7228 68.4576 56.5532C68.3558 56.3836 68.2127 56.2415 68.0283 56.127C67.8439 56.0126 67.6234 55.9267 67.3669 55.8695C67.1103 55.8122 66.8295 55.7836 66.5242 55.7836H65.5766V54.8742H66.5369C66.7871 54.8742 67.015 54.8413 67.2206 54.7756C67.4262 54.7099 67.6022 54.6155 67.7485 54.4926C67.8947 54.3696 68.0071 54.218 68.0855 54.0378C68.164 53.8576 68.2032 53.6531 68.2032 53.4241C68.2032 52.9789 68.0675 52.6546 67.7962 52.451C67.5248 52.2475 67.1263 52.1458 66.6005 52.1458C66.3207 52.1458 66.0324 52.1734 65.7356 52.2285C65.4388 52.2836 65.1208 52.3663 64.7816 52.4765V51.5098C64.9257 51.4589 65.0794 51.4133 65.2427 51.3731C65.4059 51.3328 65.5692 51.2989 65.7324 51.2713C65.8956 51.2437 66.0578 51.2225 66.2189 51.2077C66.38 51.1929 66.5348 51.1855 66.6832 51.1855C67.1241 51.1855 67.5121 51.2332 67.847 51.3286C68.182 51.424 68.4618 51.5607 68.6865 51.7388C68.9113 51.9169 69.0808 52.1331 69.1953 52.3875C69.3098 52.6419 69.367 52.9281 69.367 53.2461C69.367 53.721 69.2451 54.1195 69.0014 54.4417C68.7576 54.764 68.4237 55.0205 67.9997 55.2113C68.2159 55.2452 68.429 55.313 68.6388 55.4148C68.8487 55.5166 69.0374 55.6469 69.2049 55.8059C69.3723 55.9649 69.508 56.1525 69.6119 56.3688C69.7158 56.585 69.7677 56.8245 69.7677 57.0874Z" fill="black"/>
    <path d="M77.514 57.7742H76.0958V59.6122H74.9637V57.7742H70.9634V56.8012L74.5058 51.2999H76.0958V56.8012H77.514V57.7742ZM74.9637 52.3683L72.07 56.8012H74.9637V52.3683Z" fill="black"/>
    <path d="M84.0647 56.9538C84.0647 57.3651 83.9756 57.7403 83.7975 58.0795C83.6195 58.4187 83.3746 58.7102 83.063 58.954C82.7513 59.1978 82.3835 59.3875 81.9595 59.5232C81.5355 59.6589 81.0776 59.7267 80.5858 59.7267C80.4629 59.7267 80.3304 59.7235 80.1883 59.7172C80.0463 59.7107 79.9053 59.7024 79.7654 59.6918C79.6255 59.6812 79.4887 59.6696 79.3552 59.6568C79.2216 59.6441 79.1018 59.6292 78.9958 59.6123V58.6074C79.2248 58.6626 79.4866 58.7028 79.7813 58.7282C80.076 58.7536 80.3738 58.7664 80.6749 58.7664C81.014 58.7664 81.3193 58.7261 81.5907 58.6456C81.862 58.565 82.0931 58.4495 82.2839 58.299C82.4747 58.1485 82.621 57.9662 82.7227 57.752C82.8245 57.5379 82.8754 57.2973 82.8754 57.0302C82.8754 56.5129 82.6899 56.1366 82.3189 55.9013C81.9479 55.666 81.4147 55.5484 80.7194 55.5484H79.1421V51.3H83.6195V52.2667H80.1851V54.6007H80.9102C81.3087 54.6007 81.6967 54.6368 82.074 54.7089C82.4514 54.7809 82.7874 54.9071 83.0821 55.0873C83.3767 55.2675 83.6142 55.5091 83.7944 55.8123C83.9746 56.1154 84.0647 56.4959 84.0647 56.9538Z" fill="black"/>
    <path d="M91.5502 56.9792C91.5502 57.3608 91.4814 57.7191 91.3435 58.0541C91.2057 58.389 91.0096 58.6805 90.7553 58.9285C90.5009 59.1766 90.1945 59.3716 89.8363 59.5136C89.478 59.6557 89.0805 59.7267 88.6438 59.7267C88.1859 59.7267 87.781 59.6536 87.4291 59.5073C87.0771 59.361 86.7825 59.1363 86.545 58.8331C86.3076 58.53 86.1274 58.1473 86.0044 57.6852C85.8815 57.223 85.82 56.6761 85.82 56.0443C85.82 55.6203 85.8476 55.2091 85.9027 54.8105C85.9578 54.412 86.049 54.0367 86.1762 53.6848C86.3034 53.3329 86.473 53.0107 86.6849 52.7181C86.8969 52.4256 87.1609 52.1744 87.4768 51.9645C87.7926 51.7546 88.1647 51.5914 88.5929 51.4748C89.0211 51.3582 89.5172 51.2999 90.0811 51.2999H90.9015V52.2666H90.0112C89.5151 52.2666 89.0847 52.3259 88.7201 52.4447C88.3555 52.5634 88.0502 52.7309 87.8043 52.9471C87.5584 53.1633 87.3697 53.4241 87.2383 53.7293C87.1068 54.0346 87.0241 54.3759 86.9902 54.7533L86.9648 55.014C87.2319 54.8572 87.5404 54.731 87.8902 54.6356C88.24 54.5402 88.6184 54.4925 89.0254 54.4925C89.4452 54.4925 89.813 54.554 90.1289 54.677C90.4447 54.7999 90.7076 54.9706 90.9175 55.1889C91.1274 55.4073 91.2853 55.6691 91.3913 55.9744C91.4973 56.2797 91.5502 56.6146 91.5502 56.9792ZM90.3927 57.0491C90.3927 56.7948 90.362 56.5648 90.3005 56.3591C90.2391 56.1535 90.1426 55.9796 90.0112 55.8376C89.8797 55.6956 89.7133 55.5853 89.5119 55.5069C89.3105 55.4284 89.0699 55.3893 88.7901 55.3893C88.6289 55.3893 88.4657 55.4041 88.3004 55.4338C88.135 55.4635 87.9728 55.5048 87.8138 55.5578C87.6548 55.6108 87.5032 55.6712 87.3591 55.7391C87.2149 55.8069 87.0835 55.879 86.9648 55.9553C86.9648 56.5023 87.003 56.9591 87.0793 57.3258C87.1555 57.6926 87.269 57.9862 87.4195 58.2067C87.57 58.4272 87.7555 58.584 87.976 58.6773C88.1965 58.7706 88.4509 58.8172 88.7392 58.8172C88.9809 58.8172 89.2024 58.778 89.4038 58.6996C89.6052 58.6211 89.779 58.5056 89.9253 58.353C90.0716 58.2003 90.186 58.0148 90.2687 57.7965C90.3514 57.5781 90.3927 57.329 90.3927 57.0491Z" fill="black"/>
    <path d="M98.5779 52.3302L95.0927 59.6122H93.8271L97.4458 52.3302H92.9557V51.2999H98.5779V52.3302Z" fill="black"/>
    <path d="M105.796 57.5262C105.796 57.8781 105.724 58.1908 105.58 58.4643C105.436 58.7377 105.235 58.9677 104.976 59.1543C104.717 59.3409 104.412 59.4829 104.06 59.5804C103.708 59.6779 103.327 59.7267 102.915 59.7267C102.462 59.7267 102.062 59.6758 101.716 59.5741C101.371 59.4723 101.082 59.3303 100.848 59.1479C100.615 58.9656 100.439 58.7494 100.32 58.4992C100.202 58.2491 100.142 57.9735 100.142 57.6725C100.142 57.1637 100.284 56.7248 100.569 56.356C100.853 55.9871 101.291 55.6521 101.885 55.3511C101.342 55.0755 100.946 54.7692 100.696 54.4321C100.446 54.095 100.32 53.7081 100.32 53.2714C100.32 53.0043 100.376 52.7457 100.486 52.4955C100.596 52.2454 100.762 52.0228 100.985 51.8277C101.208 51.6327 101.486 51.4769 101.821 51.3603C102.156 51.2437 102.551 51.1854 103.004 51.1854C103.433 51.1854 103.809 51.231 104.133 51.3221C104.458 51.4133 104.73 51.5437 104.95 51.7133C105.171 51.8829 105.336 52.0885 105.447 52.3302C105.557 52.5719 105.612 52.8411 105.612 53.1379C105.612 53.6212 105.477 54.0325 105.208 54.3717C104.939 54.7109 104.556 55.0077 104.06 55.2621C104.306 55.385 104.535 55.5207 104.747 55.6691C104.959 55.8175 105.143 55.9829 105.3 56.1652C105.457 56.3475 105.579 56.551 105.666 56.7757C105.753 57.0004 105.796 57.2506 105.796 57.5262ZM104.48 53.2269C104.48 52.8496 104.347 52.5687 104.082 52.3842C103.817 52.1998 103.445 52.1076 102.966 52.1076C102.491 52.1076 102.121 52.1987 101.856 52.3811C101.591 52.5634 101.459 52.8369 101.459 53.2015C101.459 53.3668 101.491 53.5195 101.554 53.6594C101.618 53.7993 101.716 53.9307 101.85 54.0537C101.984 54.1767 102.15 54.2975 102.349 54.4162C102.549 54.5349 102.786 54.6558 103.062 54.7787C103.541 54.554 103.897 54.3198 104.13 54.076C104.363 53.8322 104.48 53.5492 104.48 53.2269ZM104.594 57.6089C104.594 57.452 104.569 57.2994 104.518 57.151C104.467 57.0026 104.376 56.8563 104.245 56.7121C104.113 56.568 103.937 56.4238 103.717 56.2797C103.496 56.1355 103.216 55.9871 102.877 55.8345C102.589 55.9744 102.346 56.1132 102.149 56.251C101.952 56.3888 101.793 56.5287 101.672 56.6708C101.551 56.8128 101.465 56.9602 101.414 57.1128C101.364 57.2654 101.338 57.4265 101.338 57.5961C101.338 57.7869 101.379 57.9555 101.462 58.1017C101.545 58.248 101.658 58.372 101.802 58.4738C101.947 58.5756 102.118 58.6519 102.318 58.7028C102.517 58.7536 102.733 58.779 102.966 58.779C103.191 58.779 103.403 58.7558 103.602 58.7091C103.802 58.6625 103.974 58.5915 104.121 58.4961C104.267 58.4007 104.382 58.2798 104.467 58.1335C104.552 57.9873 104.594 57.8124 104.594 57.6089Z" fill="black"/>
    <path d="M112.926 54.9886C112.926 55.7984 112.828 56.4948 112.633 57.0778C112.438 57.6608 112.15 58.1399 111.768 58.5151C111.387 58.8904 110.914 59.167 110.35 59.3451C109.786 59.5232 109.135 59.6122 108.398 59.6122H107.704V58.6455H108.474C109.021 58.6455 109.494 58.5904 109.892 58.4802C110.291 58.3699 110.622 58.2077 110.887 57.9936C111.152 57.7795 111.355 57.5188 111.495 57.2114C111.635 56.904 111.722 56.5531 111.756 56.1588L111.781 55.8981C111.514 56.0549 111.206 56.1811 110.859 56.2765C110.511 56.3719 110.134 56.4196 109.727 56.4196C109.307 56.4196 108.938 56.3581 108.62 56.2351C108.302 56.1122 108.038 55.9405 107.828 55.72C107.618 55.4995 107.46 55.2377 107.354 54.9345C107.248 54.6314 107.195 54.3017 107.195 53.9456C107.195 53.5598 107.265 53.1994 107.405 52.8644C107.545 52.5295 107.741 52.238 107.994 51.9899C108.246 51.7419 108.548 51.5458 108.9 51.4016C109.252 51.2575 109.64 51.1854 110.064 51.1854C110.475 51.1854 110.856 51.2532 111.205 51.3889C111.555 51.5246 111.857 51.744 112.112 52.0472C112.366 52.3503 112.565 52.7436 112.709 53.2269C112.854 53.7103 112.926 54.2975 112.926 54.9886ZM110.013 52.0949C109.775 52.0949 109.556 52.1341 109.355 52.2125C109.153 52.291 108.979 52.4054 108.833 52.556C108.687 52.7065 108.571 52.892 108.487 53.1124C108.402 53.3329 108.359 53.5852 108.359 53.8693C108.359 54.1279 108.39 54.359 108.452 54.5625C108.513 54.766 108.608 54.9388 108.738 55.0808C108.867 55.2229 109.034 55.332 109.237 55.4083C109.441 55.4846 109.682 55.5228 109.962 55.5228C110.119 55.5228 110.281 55.508 110.449 55.4783C110.616 55.4486 110.779 55.4084 110.938 55.3575C111.097 55.3066 111.249 55.2472 111.393 55.1794C111.537 55.1116 111.666 55.0395 111.781 54.9632C111.781 54.4162 111.741 53.9594 111.66 53.5926C111.58 53.2259 111.463 52.9312 111.31 52.7086C111.158 52.486 110.972 52.3281 110.754 52.2348C110.535 52.1415 110.289 52.0949 110.013 52.0949Z" fill="black"/>
    <path d="M120.335 55.4592C120.335 56.0952 120.271 56.675 120.144 57.1986C120.017 57.7223 119.824 58.1717 119.565 58.5469C119.307 58.9222 118.986 59.2126 118.602 59.4182C118.218 59.6239 117.768 59.7267 117.25 59.7267C116.805 59.7267 116.4 59.643 116.036 59.4755C115.671 59.308 115.359 59.0504 115.101 58.7028C114.842 58.3551 114.643 57.912 114.503 57.3735C114.363 56.8351 114.293 56.197 114.293 55.4592C114.293 54.8232 114.358 54.2424 114.487 53.7166C114.616 53.1909 114.809 52.7404 115.066 52.3652C115.322 51.9899 115.643 51.6995 116.029 51.4939C116.415 51.2882 116.865 51.1854 117.378 51.1854C117.823 51.1854 118.228 51.2691 118.592 51.4366C118.957 51.6041 119.269 51.8627 119.527 52.2125C119.786 52.5623 119.985 53.0064 120.125 53.5449C120.265 54.0834 120.335 54.7215 120.335 55.4592ZM119.216 55.4974C119.216 55.3532 119.21 55.2102 119.2 55.0681C119.189 54.9261 119.178 54.7872 119.165 54.6515L115.648 57.2655C115.711 57.486 115.792 57.6895 115.889 57.876C115.987 58.0626 116.105 58.2226 116.242 58.3561C116.38 58.4897 116.537 58.5936 116.713 58.6678C116.889 58.742 117.089 58.7791 117.314 58.7791C117.602 58.7791 117.864 58.7091 118.099 58.5692C118.335 58.4293 118.535 58.2216 118.7 57.946C118.866 57.6704 118.993 57.328 119.082 56.9189C119.171 56.5097 119.216 56.0359 119.216 55.4974ZM115.412 55.4211C115.412 55.5526 115.413 55.684 115.416 55.8154C115.418 55.9469 115.425 56.0741 115.438 56.197L118.955 53.5958C118.891 53.3796 118.811 53.1825 118.713 53.0044C118.616 52.8263 118.499 52.6726 118.363 52.5433C118.228 52.414 118.073 52.3133 117.899 52.2412C117.725 52.1691 117.53 52.1331 117.314 52.1331C117.026 52.1331 116.764 52.2031 116.529 52.3429C116.293 52.4829 116.093 52.6917 115.928 52.9694C115.762 53.2471 115.635 53.5905 115.546 53.9997C115.457 54.4088 115.412 54.8827 115.412 55.4211Z" fill="black"/>
    <path d="M127.159 57.0874C127.159 57.452 127.085 57.7944 126.936 58.1145C126.788 58.4346 126.565 58.7145 126.269 58.954C125.972 59.1936 125.599 59.3822 125.149 59.52C124.7 59.6578 124.176 59.7267 123.578 59.7267C123.248 59.7267 122.951 59.7161 122.688 59.6949C122.425 59.6737 122.179 59.6462 121.95 59.6123V58.6201C122.213 58.6668 122.491 58.7027 122.783 58.7282C123.076 58.7536 123.375 58.7664 123.68 58.7664C124.096 58.7664 124.451 58.7293 124.746 58.6551C125.04 58.5808 125.281 58.4738 125.467 58.3339C125.654 58.194 125.79 58.0244 125.874 57.8251C125.959 57.6259 126.002 57.4011 126.002 57.151C126.002 56.922 125.951 56.7228 125.849 56.5532C125.747 56.3836 125.604 56.2415 125.42 56.127C125.235 56.0126 125.015 55.9267 124.758 55.8695C124.502 55.8122 124.221 55.7836 123.916 55.7836H122.968V54.8742H123.928C124.178 54.8742 124.406 54.8413 124.612 54.7756C124.818 54.7099 124.994 54.6155 125.14 54.4926C125.286 54.3696 125.398 54.218 125.477 54.0378C125.555 53.8576 125.595 53.6531 125.595 53.4241C125.595 52.9789 125.459 52.6546 125.188 52.451C124.916 52.2475 124.518 52.1458 123.992 52.1458C123.712 52.1458 123.424 52.1734 123.127 52.2285C122.83 52.2836 122.512 52.3663 122.173 52.4765V51.5098C122.317 51.4589 122.471 51.4133 122.634 51.3731C122.797 51.3328 122.961 51.2989 123.124 51.2713C123.287 51.2437 123.449 51.2225 123.61 51.2077C123.771 51.1929 123.926 51.1855 124.075 51.1855C124.515 51.1855 124.903 51.2332 125.238 51.3286C125.573 51.424 125.853 51.5607 126.078 51.7388C126.303 51.9169 126.472 52.1331 126.587 52.3875C126.701 52.6419 126.758 52.9281 126.758 53.2461C126.758 53.721 126.636 54.1195 126.393 54.4417C126.149 54.764 125.815 55.0205 125.391 55.2113C125.607 55.2452 125.82 55.313 126.03 55.4148C126.24 55.5166 126.429 55.6469 126.596 55.8059C126.764 55.9649 126.899 56.1525 127.003 56.3688C127.107 56.585 127.159 56.8245 127.159 57.0874Z" fill="black"/>
    <path d="M132.921 62.2834C130.967 60.4729 129.989 58.4717 129.989 56.2797C129.989 55.7666 130.041 55.2547 130.145 54.7437C130.249 54.2328 130.416 53.7209 130.647 53.2078C130.879 52.6948 131.184 52.1818 131.563 51.6688C131.943 51.1557 132.404 50.6469 132.947 50.1424L133.589 50.7975C131.944 52.4213 131.121 54.2212 131.121 56.197C131.121 57.1806 131.329 58.1261 131.745 59.0335C132.16 59.9408 132.775 60.7973 133.589 61.6029L132.921 62.2834Z" fill="black"/>
    <path d="M141.507 57.0874C141.507 57.452 141.433 57.7944 141.284 58.1145C141.136 58.4346 140.913 58.7145 140.617 58.954C140.32 59.1936 139.947 59.3822 139.497 59.52C139.048 59.6578 138.524 59.7267 137.926 59.7267C137.596 59.7267 137.299 59.7161 137.036 59.6949C136.773 59.6737 136.527 59.6462 136.298 59.6123V58.6201C136.561 58.6668 136.839 58.7027 137.131 58.7282C137.424 58.7536 137.723 58.7664 138.028 58.7664C138.444 58.7664 138.799 58.7293 139.093 58.6551C139.388 58.5808 139.629 58.4738 139.815 58.3339C140.002 58.194 140.137 58.0244 140.222 57.8251C140.307 57.6259 140.349 57.4011 140.349 57.151C140.349 56.922 140.299 56.7228 140.197 56.5532C140.095 56.3836 139.952 56.2415 139.768 56.127C139.583 56.0126 139.363 55.9267 139.106 55.8695C138.85 55.8122 138.569 55.7836 138.263 55.7836H137.316V54.8742H138.276C138.526 54.8742 138.754 54.8413 138.96 54.7756C139.165 54.7099 139.341 54.6155 139.488 54.4926C139.634 54.3696 139.746 54.218 139.825 54.0378C139.903 53.8576 139.942 53.6531 139.942 53.4241C139.942 52.9789 139.807 52.6546 139.535 52.451C139.264 52.2475 138.865 52.1458 138.34 52.1458C138.06 52.1458 137.772 52.1734 137.475 52.2285C137.178 52.2836 136.86 52.3663 136.521 52.4765V51.5098C136.665 51.4589 136.819 51.4133 136.982 51.3731C137.145 51.3328 137.308 51.2989 137.472 51.2713C137.635 51.2437 137.797 51.2225 137.958 51.2077C138.119 51.1929 138.274 51.1855 138.422 51.1855C138.863 51.1855 139.251 51.2332 139.586 51.3286C139.921 51.424 140.201 51.5607 140.426 51.7388C140.65 51.9169 140.82 52.1331 140.935 52.3875C141.049 52.6419 141.106 52.9281 141.106 53.2461C141.106 53.721 140.984 54.1195 140.741 54.4417C140.497 54.764 140.163 55.0205 139.739 55.2113C139.955 55.2452 140.168 55.313 140.378 55.4148C140.588 55.5166 140.777 55.6469 140.944 55.8059C141.112 55.9649 141.247 56.1525 141.351 56.3688C141.455 56.585 141.507 56.8245 141.507 57.0874Z" fill="black"/>
    <path d="M148.77 59.6122H143.548V58.5819H145.685V52.5146L143.695 53.5958L143.288 52.6545L145.933 51.2617H146.913V58.5819H148.77V59.6122Z" fill="black"/>
    <path d="M156.205 55.4592C156.205 56.0952 156.141 56.675 156.014 57.1986C155.887 57.7223 155.694 58.1717 155.435 58.5469C155.176 58.9222 154.855 59.2126 154.472 59.4182C154.088 59.6239 153.637 59.7267 153.12 59.7267C152.675 59.7267 152.27 59.643 151.905 59.4755C151.541 59.308 151.229 59.0504 150.97 58.7028C150.712 58.3551 150.513 57.912 150.373 57.3735C150.233 56.8351 150.163 56.197 150.163 55.4592C150.163 54.8232 150.227 54.2424 150.357 53.7166C150.486 53.1909 150.679 52.7404 150.935 52.3652C151.192 51.9899 151.513 51.6995 151.899 51.4939C152.285 51.2882 152.734 51.1854 153.247 51.1854C153.692 51.1854 154.097 51.2691 154.462 51.4366C154.827 51.6041 155.138 51.8627 155.397 52.2125C155.656 52.5623 155.855 53.0064 155.995 53.5449C156.135 54.0834 156.205 54.7215 156.205 55.4592ZM155.085 55.4974C155.085 55.3532 155.08 55.2102 155.069 55.0681C155.059 54.9261 155.047 54.7872 155.034 54.6515L151.517 57.2655C151.581 57.486 151.662 57.6895 151.759 57.876C151.857 58.0626 151.974 58.2226 152.112 58.3561C152.25 58.4897 152.407 58.5936 152.583 58.6678C152.759 58.742 152.959 58.7791 153.184 58.7791C153.472 58.7791 153.734 58.7091 153.969 58.5692C154.204 58.4293 154.405 58.2216 154.57 57.946C154.735 57.6704 154.863 57.328 154.952 56.9189C155.041 56.5097 155.085 56.0359 155.085 55.4974ZM151.282 55.4211C151.282 55.5526 151.283 55.684 151.285 55.8154C151.288 55.9469 151.295 56.0741 151.308 56.197L154.825 53.5958C154.761 53.3796 154.68 53.1825 154.583 53.0044C154.485 52.8263 154.369 52.6726 154.233 52.5433C154.097 52.414 153.943 52.3133 153.769 52.2412C153.595 52.1691 153.4 52.1331 153.184 52.1331C152.895 52.1331 152.634 52.2031 152.398 52.3429C152.163 52.4829 151.963 52.6917 151.797 52.9694C151.632 53.2471 151.505 53.5905 151.416 53.9997C151.327 54.4088 151.282 54.8827 151.282 55.4211Z" fill="black"/>
    <path d="M163.029 57.0874C163.029 57.452 162.954 57.7944 162.806 58.1145C162.658 58.4346 162.435 58.7145 162.138 58.954C161.842 59.1936 161.468 59.3822 161.019 59.52C160.57 59.6578 160.046 59.7267 159.448 59.7267C159.117 59.7267 158.821 59.7161 158.558 59.6949C158.295 59.6737 158.049 59.6462 157.82 59.6123V58.6201C158.083 58.6668 158.361 58.7027 158.653 58.7282C158.946 58.7536 159.245 58.7664 159.55 58.7664C159.965 58.7664 160.32 58.7293 160.615 58.6551C160.91 58.5808 161.15 58.4738 161.337 58.3339C161.524 58.194 161.659 58.0244 161.744 57.8251C161.829 57.6259 161.871 57.4011 161.871 57.151C161.871 56.922 161.82 56.7228 161.719 56.5532C161.617 56.3836 161.474 56.2415 161.289 56.127C161.105 56.0126 160.884 55.9267 160.628 55.8695C160.371 55.8122 160.09 55.7836 159.785 55.7836H158.838V54.8742H159.798C160.048 54.8742 160.276 54.8413 160.482 54.7756C160.687 54.7099 160.863 54.6155 161.009 54.4926C161.156 54.3696 161.268 54.218 161.347 54.0378C161.425 53.8576 161.464 53.6531 161.464 53.4241C161.464 52.9789 161.328 52.6546 161.057 52.451C160.786 52.2475 160.387 52.1458 159.861 52.1458C159.582 52.1458 159.293 52.1734 158.997 52.2285C158.7 52.2836 158.382 52.3663 158.043 52.4765V51.5098C158.187 51.4589 158.34 51.4133 158.504 51.3731C158.667 51.3328 158.83 51.2989 158.993 51.2713C159.157 51.2437 159.319 51.2225 159.48 51.2077C159.641 51.1929 159.796 51.1855 159.944 51.1855C160.385 51.1855 160.773 51.2332 161.108 51.3286C161.443 51.424 161.723 51.5607 161.948 51.7388C162.172 51.9169 162.342 52.1331 162.456 52.3875C162.571 52.6419 162.628 52.9281 162.628 53.2461C162.628 53.721 162.506 54.1195 162.262 54.4417C162.019 54.764 161.685 55.0205 161.261 55.2113C161.477 55.2452 161.69 55.313 161.9 55.4148C162.11 55.5166 162.298 55.6469 162.466 55.8059C162.633 55.9649 162.769 56.1525 162.873 56.3688C162.977 56.585 163.029 56.8245 163.029 57.0874Z" fill="black"/>
    <path d="M166.272 50.1424C168.227 51.9528 169.204 53.9668 169.204 56.1843C169.204 56.6422 169.157 57.117 169.064 57.6089C168.971 58.1007 168.812 58.6042 168.587 59.1193C168.363 59.6345 168.06 60.157 167.681 60.687C167.301 61.217 166.823 61.7491 166.247 62.2834L165.604 61.6283C166.431 60.81 167.048 59.9556 167.455 59.0653C167.862 58.1749 168.066 57.2421 168.066 56.2669C168.066 54.2487 167.245 52.4341 165.604 50.8229L166.272 50.1424Z" fill="black"/>
    <path d="M177.726 55.4592C177.726 56.0952 177.663 56.675 177.536 57.1986C177.408 57.7223 177.215 58.1717 176.957 58.5469C176.698 58.9222 176.377 59.2126 175.993 59.4182C175.61 59.6239 175.159 59.7267 174.642 59.7267C174.197 59.7267 173.792 59.643 173.427 59.4755C173.062 59.308 172.751 59.0504 172.492 58.7028C172.234 58.3551 172.034 57.912 171.894 57.3735C171.754 56.8351 171.684 56.197 171.684 55.4592C171.684 54.8232 171.749 54.2424 171.878 53.7166C172.008 53.1909 172.201 52.7404 172.457 52.3652C172.714 51.9899 173.035 51.6995 173.421 51.4939C173.807 51.2882 174.256 51.1854 174.769 51.1854C175.214 51.1854 175.619 51.2691 175.984 51.4366C176.348 51.6041 176.66 51.8627 176.919 52.2125C177.177 52.5623 177.377 53.0064 177.516 53.5449C177.656 54.0834 177.726 54.7215 177.726 55.4592ZM176.607 55.4974C176.607 55.3532 176.601 55.2102 176.591 55.0681C176.581 54.9261 176.569 54.7872 176.556 54.6515L173.039 57.2655C173.103 57.486 173.183 57.6895 173.281 57.876C173.378 58.0626 173.496 58.2226 173.634 58.3561C173.772 58.4897 173.928 58.5936 174.104 58.6678C174.28 58.742 174.481 58.7791 174.705 58.7791C174.994 58.7791 175.256 58.7091 175.491 58.5692C175.726 58.4293 175.926 58.2216 176.092 57.946C176.257 57.6704 176.384 57.328 176.473 56.9189C176.562 56.5097 176.607 56.0359 176.607 55.4974ZM172.804 55.4211C172.804 55.5526 172.805 55.684 172.807 55.8154C172.809 55.9469 172.817 56.0741 172.829 56.197L176.346 53.5958C176.283 53.3796 176.202 53.1825 176.105 53.0044C176.007 52.8263 175.89 52.6726 175.755 52.5433C175.619 52.414 175.464 52.3133 175.291 52.2412C175.117 52.1691 174.922 52.1331 174.705 52.1331C174.417 52.1331 174.155 52.2031 173.92 52.3429C173.685 52.4829 173.484 52.6917 173.319 52.9694C173.154 53.2471 173.026 53.5905 172.937 53.9997C172.848 54.4088 172.804 54.8827 172.804 55.4211Z" fill="black"/>
    <path d="M184.9 55.4592C184.9 56.0952 184.837 56.675 184.709 57.1986C184.582 57.7223 184.389 58.1717 184.131 58.5469C183.872 58.9222 183.551 59.2126 183.167 59.4182C182.783 59.6239 182.333 59.7267 181.816 59.7267C181.371 59.7267 180.966 59.643 180.601 59.4755C180.236 59.308 179.925 59.0504 179.666 58.7028C179.407 58.3551 179.208 57.912 179.068 57.3735C178.928 56.8351 178.858 56.197 178.858 55.4592C178.858 54.8232 178.923 54.2424 179.052 53.7166C179.182 53.1909 179.375 52.7404 179.631 52.3652C179.888 51.9899 180.209 51.6995 180.595 51.4939C180.98 51.2882 181.43 51.1854 181.943 51.1854C182.388 51.1854 182.793 51.2691 183.158 51.4366C183.522 51.6041 183.834 51.8627 184.093 52.2125C184.351 52.5623 184.55 53.0064 184.69 53.5449C184.83 54.0834 184.9 54.7215 184.9 55.4592ZM183.781 55.4974C183.781 55.3532 183.775 55.2102 183.765 55.0681C183.754 54.9261 183.743 54.7872 183.73 54.6515L180.213 57.2655C180.277 57.486 180.357 57.6895 180.455 57.876C180.552 58.0626 180.67 58.2226 180.808 58.3561C180.945 58.4897 181.102 58.5936 181.278 58.6678C181.454 58.742 181.655 58.7791 181.879 58.7791C182.168 58.7791 182.429 58.7091 182.665 58.5692C182.9 58.4293 183.1 58.2216 183.266 57.946C183.431 57.6704 183.558 57.328 183.647 56.9189C183.736 56.5097 183.781 56.0359 183.781 55.4974ZM179.978 55.4211C179.978 55.5526 179.979 55.684 179.981 55.8154C179.983 55.9469 179.99 56.0741 180.003 56.197L183.52 53.5958C183.457 53.3796 183.376 53.1825 183.279 53.0044C183.181 52.8263 183.064 52.6726 182.929 52.5433C182.793 52.414 182.638 52.3133 182.464 52.2412C182.291 52.1691 182.096 52.1331 181.879 52.1331C181.591 52.1331 181.329 52.2031 181.094 52.3429C180.859 52.4829 180.658 52.6917 180.493 52.9694C180.328 53.2471 180.2 53.5905 180.111 53.9997C180.022 54.4088 179.978 54.8827 179.978 55.4211Z" fill="black"/>
    <path d="M192.074 55.4592C192.074 56.0952 192.011 56.675 191.883 57.1986C191.756 57.7223 191.563 58.1717 191.305 58.5469C191.046 58.9222 190.725 59.2126 190.341 59.4182C189.957 59.6239 189.507 59.7267 188.99 59.7267C188.544 59.7267 188.14 59.643 187.775 59.4755C187.41 59.308 187.099 59.0504 186.84 58.7028C186.581 58.3551 186.382 57.912 186.242 57.3735C186.102 56.8351 186.032 56.197 186.032 55.4592C186.032 54.8232 186.097 54.2424 186.226 53.7166C186.356 53.1909 186.549 52.7404 186.805 52.3652C187.062 51.9899 187.383 51.6995 187.769 51.4939C188.154 51.2882 188.604 51.1854 189.117 51.1854C189.562 51.1854 189.967 51.2691 190.332 51.4366C190.696 51.6041 191.008 51.8627 191.266 52.2125C191.525 52.5623 191.724 53.0064 191.864 53.5449C192.004 54.0834 192.074 54.7215 192.074 55.4592ZM190.955 55.4974C190.955 55.3532 190.949 55.2102 190.939 55.0681C190.928 54.9261 190.917 54.7872 190.904 54.6515L187.387 57.2655C187.451 57.486 187.531 57.6895 187.629 57.876C187.726 58.0626 187.844 58.2226 187.982 58.3561C188.119 58.4897 188.276 58.5936 188.452 58.6678C188.628 58.742 188.829 58.7791 189.053 58.7791C189.342 58.7791 189.603 58.7091 189.839 58.5692C190.074 58.4293 190.274 58.2216 190.44 57.946C190.605 57.6704 190.732 57.328 190.821 56.9189C190.91 56.5097 190.955 56.0359 190.955 55.4974ZM187.152 55.4211C187.152 55.5526 187.152 55.684 187.155 55.8154C187.157 55.9469 187.164 56.0741 187.177 56.197L190.694 53.5958C190.631 53.3796 190.55 53.1825 190.452 53.0044C190.355 52.8263 190.238 52.6726 190.103 52.5433C189.967 52.414 189.812 52.3133 189.638 52.2412C189.465 52.1691 189.27 52.1331 189.053 52.1331C188.765 52.1331 188.503 52.2031 188.268 52.3429C188.033 52.4829 187.832 52.6917 187.667 52.9694C187.501 53.2471 187.374 53.5905 187.285 53.9997C187.196 54.4088 187.152 54.8827 187.152 55.4211Z" fill="black"/>
    <path d="M198.987 59.6122H193.766V58.5819H195.903V52.5146L193.912 53.5958L193.505 52.6545L196.151 51.2617H197.13V58.5819H198.987V59.6122Z" fill="black"/>
    <path d="M206.231 59.6122H200.755V58.6201L202.905 56.4832C203.257 56.1355 203.543 55.8345 203.764 55.5801C203.984 55.3257 204.156 55.0935 204.279 54.8837C204.402 54.6738 204.484 54.4756 204.527 54.289C204.569 54.1025 204.59 53.9011 204.59 53.6848C204.59 53.4813 204.563 53.2873 204.508 53.1029C204.453 52.9185 204.368 52.7563 204.253 52.6164C204.139 52.4765 203.99 52.3662 203.808 52.2857C203.626 52.2051 203.407 52.1648 203.153 52.1648C202.801 52.1648 202.481 52.2433 202.193 52.4001C201.904 52.557 201.639 52.7605 201.398 53.0107L200.787 52.2793C201.101 51.9486 201.462 51.6836 201.872 51.4843C202.281 51.285 202.757 51.1854 203.299 51.1854C203.668 51.1854 204.004 51.2405 204.307 51.3508C204.61 51.461 204.872 51.62 205.093 51.8277C205.313 52.0355 205.484 52.2899 205.605 52.5909C205.726 52.892 205.786 53.2312 205.786 53.6085C205.786 53.9265 205.744 54.2212 205.659 54.4925C205.574 54.7639 205.446 55.0342 205.274 55.3034C205.102 55.5727 204.886 55.8514 204.625 56.1397C204.365 56.428 204.056 56.7439 203.7 57.0874L202.193 58.5565H206.231L206.231 59.6122Z" fill="black"/>
    <path d="M213.246 57.0874C213.246 57.452 213.172 57.7944 213.024 58.1145C212.875 58.4346 212.653 58.7145 212.356 58.954C212.059 59.1936 211.686 59.3822 211.236 59.52C210.787 59.6578 210.263 59.7267 209.666 59.7267C209.335 59.7267 209.038 59.7161 208.775 59.6949C208.512 59.6737 208.266 59.6462 208.037 59.6123V58.6201C208.3 58.6668 208.578 58.7027 208.871 58.7282C209.163 58.7536 209.462 58.7664 209.767 58.7664C210.183 58.7664 210.538 58.7293 210.833 58.6551C211.127 58.5808 211.368 58.4738 211.554 58.3339C211.741 58.194 211.877 58.0244 211.961 57.8251C212.046 57.6259 212.089 57.4011 212.089 57.151C212.089 56.922 212.038 56.7228 211.936 56.5532C211.834 56.3836 211.691 56.2415 211.507 56.127C211.322 56.0126 211.102 55.9267 210.845 55.8695C210.589 55.8122 210.308 55.7836 210.003 55.7836H209.055V54.8742H210.015C210.266 54.8742 210.493 54.8413 210.699 54.7756C210.905 54.7099 211.081 54.6155 211.227 54.4926C211.373 54.3696 211.486 54.218 211.564 54.0378C211.642 53.8576 211.682 53.6531 211.682 53.4241C211.682 52.9789 211.546 52.6546 211.275 52.451C211.003 52.2475 210.605 52.1458 210.079 52.1458C209.799 52.1458 209.511 52.1734 209.214 52.2285C208.917 52.2836 208.599 52.3663 208.26 52.4765V51.5098C208.404 51.4589 208.558 51.4133 208.721 51.3731C208.884 51.3328 209.048 51.2989 209.211 51.2713C209.374 51.2437 209.536 51.2225 209.697 51.2077C209.858 51.1929 210.013 51.1855 210.162 51.1855C210.603 51.1855 210.991 51.2332 211.325 51.3286C211.66 51.424 211.94 51.5607 212.165 51.7388C212.39 51.9169 212.559 52.1331 212.674 52.3875C212.788 52.6419 212.845 52.9281 212.845 53.2461C212.845 53.721 212.724 54.1195 212.48 54.4417C212.236 54.764 211.902 55.0205 211.478 55.2113C211.694 55.2452 211.907 55.313 212.117 55.4148C212.327 55.5166 212.516 55.6469 212.683 55.8059C212.851 55.9649 212.986 56.1525 213.09 56.3688C213.194 56.585 213.246 56.8245 213.246 57.0874Z" fill="black"/>
</svg>
